<svg width="960" height="540" viewBox="0 0 960 540" fill="none" xmlns="http://www.w3.org/2000/svg" role="img" aria-labelledby="title desc">
  <title id="title">Imagem neutra para projeto em desenvolvimento</title>
  <desc id="desc">Ilustração abstrata com blocos conectados, linhas de dados e um painel central para representar projetos de dados e software em desenvolvimento.</desc>
  <defs>
    <linearGradient id="background" x1="0" y1="0" x2="960" y2="540" gradientUnits="userSpaceOnUse">
      <stop stop-color="#F8FAFC"/>
      <stop offset="1" stop-color="#E2E8F0"/>
    </linearGradient>
    <linearGradient id="panel" x1="272" y1="132" x2="688" y2="408" gradientUnits="userSpaceOnUse">
      <stop stop-color="#111827"/>
      <stop offset="1" stop-color="#172554"/>
    </linearGradient>
  </defs>
  <rect width="960" height="540" rx="28" fill="url(#background)"/>
  <path d="M120 420C240 330 332 400 450 304C548 224 640 218 840 140" stroke="#94A3B8" stroke-width="3" stroke-linecap="round" opacity="0.45"/>
  <rect x="272" y="132" width="416" height="276" rx="18" fill="url(#panel)"/>
  <rect x="306" y="170" width="170" height="26" rx="6" fill="#E2E8F0" opacity="0.92"/>
  <rect x="306" y="218" width="110" height="14" rx="7" fill="#60A5FA"/>
  <rect x="306" y="250" width="250" height="12" rx="6" fill="#CBD5E1" opacity="0.74"/>
  <rect x="306" y="278" width="220" height="12" rx="6" fill="#CBD5E1" opacity="0.55"/>
  <rect x="306" y="306" width="270" height="12" rx="6" fill="#CBD5E1" opacity="0.38"/>
  <rect x="548" y="198" width="86" height="86" rx="14" stroke="#93C5FD" stroke-width="3"/>
  <path d="M570 258L590 236L608 248L632 218" stroke="#A78BFA" stroke-width="4" stroke-linecap="round" stroke-linejoin="round"/>
  <circle cx="120" cy="420" r="9" fill="#1F6FEB"/>
  <circle cx="450" cy="304" r="9" fill="#60A5FA"/>
  <circle cx="840" cy="140" r="9" fill="#7C3AED"/>
  <text x="480" y="462" text-anchor="middle" fill="#334155" font-family="Inter, Segoe UI, Arial, sans-serif" font-size="28" font-weight="700">Projeto em desenvolvimento</text>
  <text x="480" y="498" text-anchor="middle" fill="#64748B" font-family="Inter, Segoe UI, Arial, sans-serif" font-size="18">Dados, software, automação e análise</text>
</svg>
